<?xml version="1.0" encoding="UTF-8"?>
<svg version="1.1" xmlns="http://www.w3.org/2000/svg" width="610" height="600">
<path d="M0 0 C0.30012956 4.08212203 -0.36000454 6.16683239 -2.60546875 9.5625 C-3.17015869 10.43076416 -3.73484863 11.29902832 -4.31665039 12.19360352 C-5.24272095 13.58276978 -5.24272095 13.58276978 -6.1875 15 C-7.4829967 16.98748273 -8.77723863 18.97578385 -10.0703125 20.96484375 C-10.7293457 21.97272949 -11.38837891 22.98061523 -12.06738281 24.01904297 C-14.9672203 28.49188477 -17.76805316 33.02334934 -20.5625 37.5625 C-21.09311035 38.41779297 -21.6237207 39.27308594 -22.17041016 40.15429688 C-24.91734834 44.58736716 -27.62443576 49.03963109 -30.28125 53.52734375 C-36.19315269 63.44000021 -42.18148898 72.21169165 -50.36962891 80.35302734 C-52.84836489 82.85700352 -55.22910331 85.44963819 -57.62353516 88.03393555 C-62.65150153 93.45631429 -67.73836253 98.80382183 -73 104 C-75.91063564 106.87649328 -78.72383128 109.75826018 -81.375 112.875 C-85.0874999 117.23315206 -89.16968547 121.1958835 -93.23730469 125.21777344 C-96.72370163 128.68002915 -100.01632331 132.22820211 -103.1953125 135.9765625 C-105.97716502 139.09560927 -108.97534855 141.99589641 -111.94921875 144.9296875 C-115.22053502 148.1739681 -118.26978569 151.53635165 -121.2578125 155.0390625 C-123.2543789 157.28631885 -125.36012946 159.38894927 -127.5 161.5 C-130.2244154 164.1877846 -132.83260312 166.89816863 -135.3125 169.8125 C-138.81930705 173.90786208 -142.61574437 177.67577532 -146.47387695 181.43676758 C-149.19574226 184.11141453 -151.76554916 186.85244375 -154.25 189.75 C-159.377795 195.67795642 -165.0370362 201.08125954 -170.6171875 206.578125 C-175.04367944 210.96425379 -179.2996069 215.40255676 -183.35546875 220.1328125 C-186.08939895 223.23689477 -189.04556178 226.10777771 -192 229 C-196.32090468 233.27099137 -200.50108241 237.57162998 -204.4296875 242.2109375 C-206.82947087 244.94501906 -209.44409678 247.45263272 -212.03515625 250.00390625 C-213.92230744 251.92107177 -215.68685375 253.89575322 -217.4375 255.9375 C-220.00665271 258.92801716 -222.69317256 261.73116684 -225.5 264.5 C-228.24500542 267.20803565 -230.8727091 269.94169249 -233.375 272.875 C-236.70111307 276.75804363 -240.30286531 280.33267718 -243.93945312 283.91992188 C-247.29565168 287.24826816 -250.45349319 290.68223947 -253.4921875 294.30078125 C-255 296 -255 296 -258 298.5625 C-260.37007681 300.88240403 -260.37007681 300.88240403 -259.78125 304.1484375 C-258.95055626 308.24375766 -257.81821939 312.10407549 -256.5 316.0625 C-249.59173398 336.92546337 -251.87309064 360.13860065 -261 380 C-271.26374356 400.0026366 -288.77953702 415.53802287 -310.15527344 422.72460938 C-332.26137818 429.25299106 -356.80799869 428.67775711 -377.5 417.6875 C-380.6596215 415.7896956 -380.6596215 415.7896956 -383.015625 416.19921875 C-385.3730434 417.15053917 -386.52878196 418.26173969 -388.25 420.125 C-390.62449718 422.60469642 -393.02006744 424.95077521 -395.625 427.1875 C-400.98950842 431.81671865 -406.15374461 436.66038298 -411.35058594 441.47558594 C-413.84970467 443.78531024 -416.36281071 446.0794955 -418.875 448.375 C-423.48832585 452.5932066 -428.06111907 456.85339012 -432.625 461.125 C-437.55409652 465.73684983 -442.51873311 470.30104895 -447.55078125 474.80078125 C-451.8933983 478.70013277 -456.18329233 482.65723054 -460.48095703 486.60595703 C-461.95289916 487.95677503 -463.42757736 489.30460973 -464.90234375 490.65234375 C-465.86269531 491.53019531 -466.82304687 492.40804688 -467.8125 493.3125 C-468.53336792 493.97040527 -468.53336792 493.97040527 -469.26879883 494.64160156 C-472.1997142 497.32440976 -475.10104355 500.03559878 -477.984375 502.76953125 C-478.66137451 503.40914795 -479.33837402 504.04876465 -480.03588867 504.70776367 C-481.36544473 505.96556438 -482.69126884 507.22732419 -484.01293945 508.4934082 C-484.618396 509.06534912 -485.22385254 509.63729004 -485.84765625 510.2265625 C-486.38398682 510.73783691 -486.92031738 511.24911133 -487.47290039 511.77587891 C-489 513 -489 513 -492 514 C-492 514.66 -492 515.32 -492 516 C-492.66 516 -493.32 516 -494 516 C-494 516.66 -494 517.32 -494 518 C-494.66 518 -495.32 518 -496 518 C-496 518.66 -496 519.32 -496 520 C-497.65 520.66 -499.3 521.32 -501 522 C-501.99623541 519.40559798 -502.12053545 518.30478571 -501.08227539 515.67944336 C-500.59235107 514.82487549 -500.10242676 513.97030762 -499.59765625 513.08984375 C-499.04480957 512.11313721 -498.49196289 511.13643066 -497.92236328 510.13012695 C-497.3086084 509.07656006 -496.69485352 508.02299316 -496.0625 506.9375 C-495.43585449 505.84074951 -494.80920898 504.74399902 -494.16357422 503.61401367 C-488.08304018 493.01918919 -481.83704464 482.51979796 -475.58203125 472.02734375 C-472.78533511 467.33229297 -470.01813806 462.6230967 -467.3125 457.875 C-466.42304688 456.31458984 -466.42304688 456.31458984 -465.515625 454.72265625 C-464.56467232 453.0143727 -463.63419398 451.29435568 -462.734375 449.55859375 C-457.18999542 438.93186622 -448.68668285 430.44754404 -440.49267578 421.83374023 C-436.78570117 417.93587165 -433.19087679 413.96685727 -429.66552734 409.90405273 C-427.20668774 407.093075 -424.66970794 404.35807797 -422.125 401.625 C-418.55486427 397.77476645 -415.00352262 393.91120526 -411.5 390 C-407.5110114 385.5476806 -403.46112476 381.15460532 -399.39306641 376.7746582 C-395.6774075 372.76483798 -392.06667828 368.67540042 -388.5234375 364.51171875 C-387 363 -387 363 -385 363 C-384.5153125 363.99 -384.030625 364.98 -383.53125 366 C-377.03068862 378.94375522 -369.65877298 387.79396458 -355.8125 393.2578125 C-342.07915237 397.72115048 -328.43041335 397.48180137 -315 392 C-311.07953423 389.96155963 -307.53639484 387.64387614 -304 385 C-302.90558594 384.19755859 -302.90558594 384.19755859 -301.7890625 383.37890625 C-290.9404719 374.71250341 -285.06481403 361.61937229 -283.3125 348.1328125 C-281.87055956 333.67735961 -284.93962549 320.35230436 -293.79296875 308.625 C-295.16717932 307.0582041 -296.57924327 305.52471454 -298 304 C-298 303.34 -298 302.68 -298 302 C-298.66 302 -299.32 302 -300 302 C-300 301.34 -300 300.68 -300 300 C-300.59039062 299.71769531 -301.18078125 299.43539063 -301.7890625 299.14453125 C-303.78819628 298.10964398 -305.53013871 296.96888556 -307.375 295.6875 C-319.92193049 287.70954609 -334.95907277 285.05669779 -349.484375 287.61328125 C-356.90784701 289.66831557 -362.94772664 293.09391767 -369.3203125 297.29296875 C-372 299 -372 299 -375 300 C-376.09166275 301.93330603 -376.09166275 301.93330603 -377 304 C-377.66 304.66 -378.32 305.32 -379 306 C-380.28791445 310.26002472 -380.03090167 313.0337283 -378.1015625 317.0546875 C-375.95374929 320.84763422 -373.49975809 324.43238408 -371 328 C-372.58243611 329.58243611 -374.22385749 329.14608201 -376.41796875 329.17578125 C-389.24313525 329.47056093 -400.24275491 330.51882292 -412.125 335.75 C-415 337 -415 337 -419 337 C-419.0093457 336.43192627 -419.01869141 335.86385254 -419.02832031 335.27856445 C-419.32801938 320.74462873 -420.23492169 308.3896904 -428.046875 295.70703125 C-429 294 -429 294 -429 292 C-428.43603516 292.03665771 -427.87207031 292.07331543 -427.29101562 292.11108398 C-415.18721073 293.44388154 -415.18721073 293.44388154 -404.5 289.25 C-403.29189105 287.86850504 -402.12975163 286.44627688 -401 285 C-387.10542012 269.70748983 -368.37938855 258.37653093 -347.25854492 256.79467773 C-344.27324369 256.69625014 -341.29936484 256.67089445 -338.3125 256.6875 C-336.7203064 256.69595947 -336.7203064 256.69595947 -335.09594727 256.70458984 C-323.13587146 256.88905463 -312.8852456 259.20052928 -301.97045898 264.10595703 C-298.49382955 265.62932268 -296.57286104 266.34875289 -293 265 C-291.14200915 263.62685424 -291.14200915 263.62685424 -289.390625 261.8671875 C-288.71773437 261.22523438 -288.04484375 260.58328125 -287.3515625 259.921875 C-286.31128906 258.90867187 -286.31128906 258.90867187 -285.25 257.875 C-283.88150877 256.55854266 -282.51171823 255.24343463 -281.140625 253.9296875 C-280.45629395 253.27339355 -279.77196289 252.61709961 -279.06689453 251.94091797 C-276.42273632 249.45792036 -273.69269278 247.08477817 -270.95117188 244.71044922 C-267.77216589 241.92364793 -264.70215773 239.02320592 -261.625 236.125 C-256.64025458 231.45064643 -251.61895091 226.8272352 -246.5234375 222.2734375 C-243.49121879 219.54162436 -240.49463353 216.77287299 -237.5 214 C-232.89963436 209.7410938 -228.26266247 205.52758066 -223.59375 201.34375 C-220.54108348 198.5853164 -217.51915705 195.7949969 -214.5 193 C-209.8995846 188.74114677 -205.2626635 184.52758158 -200.59375 180.34375 C-197.54108348 177.5853164 -194.51915705 174.7949969 -191.5 172 C-186.8995846 167.74114677 -182.2626635 163.52758158 -177.59375 159.34375 C-174.54107663 156.5853102 -171.51954201 153.7945892 -168.5 151 C-166.85879673 149.484431 -165.21713999 147.96935556 -163.57519531 146.45458984 C-162.54744944 145.50553375 -161.52070849 144.55538792 -160.49511719 143.60400391 C-159.12598144 142.33558086 -157.7506542 141.07385057 -156.375 139.8125 C-155.21097656 138.73935547 -155.21097656 138.73935547 -154.0234375 137.64453125 C-152 136 -152 136 -149 135 C-149 134.34 -149 133.68 -149 133 C-147.70703125 131.6953125 -147.70703125 131.6953125 -145.8125 130.125 C-142.03987812 126.91793872 -138.3784518 123.61758623 -134.75 120.25 C-133.62115776 119.20435798 -132.49225096 118.15878564 -131.36328125 117.11328125 C-130.52144287 116.33331787 -130.52144287 116.33331787 -129.66259766 115.53759766 C-125.6200454 111.79897884 -121.55394696 108.08592966 -117.49267578 104.36767578 C-115.97185124 102.97420848 -114.45252676 101.57912249 -112.93359375 100.18359375 C-108.32926052 95.95476524 -103.71723405 91.73596914 -99.0625 87.5625 C-94.60713196 83.56482627 -90.20916481 79.50799115 -85.81665039 75.44165039 C-81.77550116 71.70473118 -77.69289404 68.01700894 -73.59375 64.34375 C-70.54108348 61.5853164 -67.51915705 58.7949969 -64.5 56 C-59.8995846 51.74114677 -55.2626635 47.52758158 -50.59375 43.34375 C-47.54108348 40.5853164 -44.51915705 37.7949969 -41.5 35 C-36.90964889 30.75046382 -32.28641024 26.54237631 -27.62109375 22.375 C-25.59426065 20.53846568 -23.59056595 18.68531489 -21.59765625 16.8125 C-20.71883789 15.98975586 -20.71883789 15.98975586 -19.82226562 15.15039062 C-18.67004039 14.06977983 -17.52144779 12.98527942 -16.37695312 11.89648438 C-13.92892393 9.60464845 -12.22160363 8.07386788 -9 7 C-9 6.34 -9 5.68 -9 5 C-3.64285714 0 -3.64285714 0 0 0 Z " fill="#000000" transform="translate(610,0)"/>
<path d="M0 0 C-0.5487939 3.97667868 -1.65486641 6.31053078 -4.09765625 9.4765625 C-4.7304248 10.30696045 -5.36319336 11.1373584 -6.01513672 11.99291992 C-7.02858154 13.29579956 -7.02858154 13.29579956 -8.0625 14.625 C-9.44217659 16.42519112 -10.8210899 18.22596749 -12.19921875 20.02734375 C-12.86099121 20.88827637 -13.52276367 21.74920898 -14.20458984 22.63623047 C-16.33455046 25.44045657 -18.35879943 28.30076069 -20.375 31.1875 C-26.18694497 39.1992349 -33.33841771 45.38185257 -41.02734375 51.53515625 C-44.96006299 54.79605749 -48.68812082 58.25262882 -52.40917969 61.7512207 C-54.95642908 64.14057278 -57.52165526 66.45128609 -60.234375 68.65234375 C-63.60587204 71.51430664 -65.48545918 73.87828533 -67 78 C-66.83772057 85.27695115 -64.05700623 91.69943081 -61.50802612 98.42486572 C-56.47083403 111.79910859 -52.69643532 125.02066415 -50.45532227 139.17480469 C-50.15378032 141.0458199 -49.8186611 142.91175625 -49.44897461 144.77050781 C-47.57061711 154.90947342 -47.66286035 165.05998859 -47.68432617 175.33496094 C-47.68746576 178.46585621 -47.66403127 181.59578475 -47.63867188 184.7265625 C-47.58214855 202.37358014 -49.46956565 219.42017653 -53.75 236.5625 C-54.00966553 237.61002441 -54.26933105 238.65754883 -54.53686523 239.73681641 C-61.23925354 266.03864323 -72.60681929 290.44654795 -87.67773438 313.00878906 C-89.05665118 315.08531149 -90.41231257 317.17401902 -91.75 319.27734375 C-92.14703125 319.89988037 -92.5440625 320.52241699 -92.953125 321.16381836 C-95.73480451 326.04278561 -96.4759448 330.26315344 -95.1875 335.75 C-92.84515734 342.42212758 -88.42696824 347.59268643 -84 353 C-82.96827614 354.27565857 -81.93704748 355.55171775 -80.90625 356.828125 C-78.69865018 359.55525771 -76.48059613 362.27351721 -74.2578125 364.98828125 C-71.28054134 368.63600661 -68.3843016 372.34119575 -65.5 376.0625 C-60.121956 382.97081788 -54.39823565 389.55354707 -48.62744141 396.13427734 C-45.97706691 399.17270547 -43.3655616 402.24411615 -40.75 405.3125 C-37.32591777 409.32374234 -33.86272005 413.28656497 -30.3125 417.1875 C-27.16000822 420.67364967 -24.08011109 424.2086651 -21.0625 427.8125 C-19.96615234 429.12154297 -19.96615234 429.12154297 -18.84765625 430.45703125 C-17.05717982 432.92130219 -15.98387006 435.13080825 -15 438 C-22.29669138 437.82795596 -27.05806827 434.08767183 -32.9375 430.0625 C-34.98997531 428.68744265 -37.04336514 427.31374938 -39.09765625 425.94140625 C-40.60223389 424.93037842 -40.60223389 424.93037842 -42.13720703 423.89892578 C-45.9948285 421.34011802 -49.9259598 418.91410304 -53.875 416.5 C-69.84105756 406.60556975 -82.72350511 393.42961831 -95.8449707 380.1184082 C-99.46263081 376.46262582 -103.07516674 372.86875115 -106.98046875 369.51953125 C-112.84541923 364.48709155 -118.15878328 358.88426545 -123.578125 353.3828125 C-127.95417755 348.96648953 -132.38229387 344.72222242 -137.1015625 340.67578125 C-140.389527 337.77344221 -143.43125429 334.63047336 -146.5 331.5 C-150.38868372 327.56045246 -154.24054068 323.66900326 -158.5 320.125 C-166.77240567 313.05613924 -171.35756454 303.95672889 -175.9375 294.25 C-176.53114835 293.03218488 -177.12554563 291.81473455 -177.72070312 290.59765625 C-182.3723346 280.86218596 -182.3723346 280.86218596 -182 276 C-177.67908447 277.45613271 -174.66572911 279.65300153 -171.125 282.5 C-150.1107247 299.62662292 -150.1107247 299.62662292 -124.76953125 305.40625 C-117.58850543 304.35289783 -114.42930615 300.75450148 -110.1953125 295.16015625 C-79.4303529 250.87394217 -69.06991551 194.51719189 -78.52294922 141.82666016 C-80.41805467 131.94536822 -82.913757 122.36935259 -86.0625 112.8125 C-86.39072754 111.81500732 -86.71895508 110.81751465 -87.05712891 109.78979492 C-88.84215816 104.61962656 -90.82185985 100.43807098 -94 96 C-94 95.34 -94 94.68 -94 94 C-98.91834046 91.37688509 -103.58898456 91.14490906 -109 92 C-125.12605338 97.09701579 -141.32346491 105.70412086 -155.34155273 115.08227539 C-157.61157177 116.33842165 -159.46502932 116.39608917 -162 116 C-161.52879861 111.3048147 -159.73535286 109.22019508 -156.5 105.875 C-152.97399829 102.14335666 -149.63902528 98.39525749 -146.4375 94.375 C-144.96390965 92.57874418 -143.48501338 90.78682365 -142 89 C-141.07960938 87.87658203 -141.07960938 87.87658203 -140.140625 86.73046875 C-133.29524734 79.13209955 -124.35297289 74.59548562 -115.60351562 69.53076172 C-111.63410652 67.19690997 -107.75443721 64.72961009 -103.875 62.25 C-96.35882649 57.46481659 -88.78451351 52.78067839 -81.1875 48.125 C-72.10614622 42.55711184 -63.09105341 36.89831116 -54.12231445 31.15112305 C-46.65703549 26.38237361 -39.09776755 21.77968669 -31.50805664 17.2121582 C-26.68106986 14.29292721 -21.91249686 11.31322225 -17.2109375 8.1953125 C-16.29135254 7.5856665 -15.37176758 6.97602051 -14.42431641 6.34790039 C-12.67804955 5.18207517 -10.93781393 4.00715044 -9.20458984 2.82202148 C-8.43066895 2.30454346 -7.65674805 1.78706543 -6.859375 1.25390625 C-6.18358398 0.79314697 -5.50779297 0.3323877 -4.81152344 -0.14233398 C-3 -1 -3 -1 0 0 Z " fill="#000000" transform="translate(555,162)"/>
<path d="M0 0 C0.61246582 0.19489014 1.22493164 0.38978027 1.85595703 0.59057617 C-0.80051429 7.45434846 -3.71062341 14.14315307 -6.89404297 20.77807617 C-7.33087402 21.69226318 -7.76770508 22.6064502 -8.21777344 23.54833984 C-11.09119265 29.51761965 -14.09594909 35.39535641 -17.25341797 41.21850586 C-19.54717644 45.45049024 -21.75007743 49.71829019 -23.89404297 54.02807617 C-24.37599121 54.99680664 -24.37599121 54.99680664 -24.86767578 55.98510742 C-25.96096188 58.1863546 -27.05247361 60.3884772 -28.14404297 62.59057617 C-35.30456911 77.01957609 -42.58381645 91.36699713 -50.14404297 105.59057617 C-51.85556879 108.81806236 -53.56317908 112.0475944 -55.26904297 115.27807617 C-55.68613525 116.0648877 -56.10322754 116.85169922 -56.53295898 117.66235352 C-58.85714527 122.06727913 -61.08042837 126.50434759 -63.22729492 130.99804688 C-70.38617606 145.83875908 -80.38885676 156.12088514 -92.49926758 167.08520508 C-93.74271443 168.22326256 -94.95212542 169.39865862 -96.14404297 170.59057617 C-97.13404297 170.59057617 -98.12404297 170.59057617 -99.14404297 170.59057617 C-99.24201172 169.72174805 -99.33998047 168.85291992 -99.44091797 167.95776367 C-100.37251163 158.9467264 -100.37251163 158.9467264 -105.14404297 151.59057617 C-108.35806489 149.85042172 -111.6751597 148.72008994 -115.14404297 147.59057617 C-116.06958984 147.25155273 -116.99513672 146.9125293 -117.94873047 146.56323242 C-151.06174385 135.16719535 -189.21262303 138.65448739 -220.59277344 153.48095703 C-239.27479017 162.17561464 -239.27479017 162.17561464 -252.33154297 176.52807617 C-251.84052843 184.54798027 -245.69641219 189.25864394 -240.19091797 194.45385742 C-238.14404297 196.59057617 -238.14404297 196.59057617 -238.14404297 198.59057617 C-253.05935379 197.80555981 -264.83613843 192.00150141 -275.51904297 181.84057617 C-276.17735107 181.22093994 -276.83565918 180.60130371 -277.51391602 179.96289062 C-281.66809038 176.03844964 -285.75535451 172.0570108 -289.72607422 167.94604492 C-291.12101606 166.47926707 -291.12101606 166.47926707 -293.14404297 165.59057617 C-293.14404297 164.93057617 -293.14404297 164.27057617 -293.14404297 163.59057617 C-293.72508789 163.33622803 -294.30613281 163.08187988 -294.90478516 162.81982422 C-297.38583939 161.45784122 -298.999224 159.94743177 -300.97216797 157.92260742 C-302.04917969 156.82916016 -302.04917969 156.82916016 -303.14794922 155.71362305 C-303.88916016 154.95114258 -304.63037109 154.18866211 -305.39404297 153.40307617 C-310.18108001 148.50125227 -315.00376019 143.77324771 -320.20166016 139.30810547 C-324.16246257 135.80581223 -327.80197824 131.97142121 -331.49951172 128.19604492 C-334.52873429 125.12871892 -337.58661413 122.16525704 -340.86352539 119.36230469 C-345.21282368 115.5771463 -349.32540747 111.58792297 -353.41357422 107.52416992 C-354.17522385 106.76822037 -354.93687347 106.01227081 -355.72160339 105.2334137 C-357.32384359 103.64056197 -358.92467966 102.0462967 -360.52416992 100.45068359 C-362.93265846 98.05186479 -365.35162975 95.66396349 -367.77099609 93.27612305 C-376.61071001 84.49685959 -384.71990845 75.59137458 -392.14404297 65.59057617 C-393.35358255 64.04084878 -394.56776363 62.49472163 -395.78857422 60.95385742 C-402.3860642 52.53060232 -408.830659 44.01229047 -415.15039062 35.37866211 C-419.40390732 29.57258157 -423.74427669 23.84372026 -428.15576172 18.15698242 C-429.13996094 16.88661133 -429.13996094 16.88661133 -430.14404297 15.59057617 C-430.72412109 14.87256836 -431.30419922 14.15456055 -431.90185547 13.41479492 C-433.51553058 11.04502675 -433.37777682 9.39538243 -433.14404297 6.59057617 C-427.8667948 8.23051783 -423.86904104 11.55757549 -419.51904297 14.84057617 C-417.81214072 16.11418658 -416.10510571 17.38761908 -414.39794922 18.66088867 C-413.5267041 19.31347656 -412.65545898 19.96606445 -411.7578125 20.63842773 C-407.67482684 23.68789096 -403.56427507 26.6995861 -399.45654297 29.71557617 C-392.98621581 34.47606277 -386.55281592 39.28276993 -380.13818359 44.11791992 C-375.12499086 47.8840747 -370.04953863 51.55831209 -364.95654297 55.21557617 C-350.06032381 65.93495949 -336.32844202 76.99807427 -323.83007812 90.49731445 C-319.85461442 94.78888239 -315.80989217 98.98383116 -311.64404297 103.09057617 C-308.59114019 106.10349753 -305.60351454 109.12583384 -302.83154297 112.40307617 C-298.72305007 117.24196781 -294.14514749 121.62192989 -289.63110352 126.07739258 C-286.31167642 129.36822892 -283.12295617 132.66952905 -280.14404297 136.27807617 C-276.19171269 140.88244063 -272.12627972 143.70546427 -265.89404297 144.21557617 C-259.80359613 143.89825877 -255.23634326 140.68775881 -250.14404297 137.59057617 C-221.30323101 120.6793728 -192.31895195 112.42735617 -158.95654297 112.21557617 C-158.2014444 112.20744904 -157.44634583 112.1993219 -156.66836548 112.19094849 C-141.36611834 112.06763885 -127.18296644 114.4587359 -112.51123047 118.82104492 C-104.76217015 120.59200186 -99.02723411 119.20642975 -92.14404297 115.59057617 C-79.51836822 107.52956845 -71.40786474 91.15696004 -63.56298828 78.8137207 C-60.60022142 74.17178074 -57.5865602 69.56246746 -54.58349609 64.9465332 C-52.22515991 61.34958876 -52.22515991 61.34958876 -50.14404297 57.59057617 C-51.25779297 57.75557617 -52.37154297 57.92057617 -53.51904297 58.09057617 C-58.343169 58.68497742 -63.2997163 59.12183133 -68.14404297 58.59057617 C-68.80404297 57.93057617 -69.46404297 57.27057617 -70.14404297 56.59057617 C-64.53098135 51.43133656 -58.83100541 46.47339429 -52.84326172 41.75463867 C-49.72699635 39.25621463 -46.68370889 36.68115026 -43.64404297 34.09057617 C-39.87754003 30.88233642 -36.08989228 27.7202207 -32.20654297 24.65307617 C-28.11981809 21.41554088 -24.15551564 18.05554636 -20.20654297 14.65307617 C-19.0126241 13.62953188 -17.81861441 12.6060935 -16.62451172 11.58276367 C-14.38619247 9.66349629 -12.16185004 7.7296773 -9.94482422 5.78588867 C-8.97931641 4.95831055 -8.01380859 4.13073242 -7.01904297 3.27807617 C-6.17083984 2.53944336 -5.32263672 1.80081055 -4.44873047 1.03979492 C-2.14404297 -0.40942383 -2.14404297 -0.40942383 0 0 Z " fill="#000000" transform="translate(433.14404296875,61.409423828125)"/>
<path d="M0 0 C8.28564798 3.65859781 13.08930839 12.80113619 18.14453125 19.9765625 C21.28559732 24.42520665 24.51384635 28.80775327 27.75 33.1875 C28.34240479 33.98969971 28.93480957 34.79189941 29.54516602 35.6184082 C30.75834127 37.26062727 31.97180333 38.9026345 33.18554688 40.54443359 C35.54668589 43.7398502 37.90347893 46.93845556 40.25976562 50.13745117 C41.41961102 51.7120617 42.57976715 53.2864434 43.74023438 54.8605957 C47.31792134 59.7138102 50.88868005 64.57202885 54.4543457 69.43408203 C56.21048929 71.82129123 57.97765028 74.20002009 59.74609375 76.578125 C61.81532139 79.36611153 63.82586054 82.1807215 65.78515625 85.046875 C70.26441043 91.99282248 70.26441043 91.99282248 77.3125 95.5625 C82.71622642 95.34747282 87.82976395 93.48671127 92.89746094 91.72265625 C121.57135966 81.86725214 150.09088679 75.74079728 180.5625 75.875 C181.59391113 75.8747583 182.62532227 75.8745166 183.68798828 75.87426758 C190.27921841 75.9001773 196.80301932 76.2152817 203.375 76.6875 C211.56870518 77.2321609 218.16633105 76.79538361 225 71.8125 C225.66 71.214375 226.32 70.61625 227 70 C227.66 70 228.32 70 229 70 C229.21398437 69.47535156 229.42796875 68.95070313 229.6484375 68.41015625 C234.84419304 59.14489276 243.96090542 51.54686232 252.5625 45.5625 C253.24070801 45.08417725 253.91891602 44.60585449 254.61767578 44.11303711 C259.44252892 40.90271451 259.44252892 40.90271451 262.21459961 41.38647461 C263.0983728 41.69016968 263.0983728 41.69016968 264 42 C262.83176278 48.5234375 261.2777732 54.70719827 259.09375 60.9609375 C258.8129509 61.78167252 258.53215179 62.60240753 258.24284363 63.44801331 C257.33570954 66.09286957 256.41886836 68.73419931 255.5 71.375 C254.86424564 73.20903333 254.22858563 75.04309936 253.59301758 76.87719727 C252.6362436 79.63627384 251.67836239 82.39494028 250.71699524 85.15242004 C249.04798671 89.94523497 247.40857909 94.74515901 245.82577515 99.56713867 C245.18650097 101.51008136 244.53679556 103.44917138 243.8828125 105.38720703 C243.11522891 107.66706826 242.36497651 109.95287948 241.63671875 112.24560547 C239.30374859 119.03973777 236.22801406 123.61600249 231.19458008 128.74829102 C228.91833333 130.99685708 228.91833333 130.99685708 226.89331055 133.73413086 C225 136 225 136 222.25 136.8125 C221.5075 136.874375 220.765 136.93625 220 137 C220.01571045 136.39003174 220.0314209 135.78006348 220.04760742 135.15161133 C220.11019813 132.3720029 220.14906622 129.59254308 220.1875 126.8125 C220.21263672 125.85279297 220.23777344 124.89308594 220.26367188 123.90429688 C220.45064753 116.88203935 220.45064753 116.88203935 217 111 C204.84601749 104.22714517 191.13915915 104.46364188 177.625 104.5625 C176.74460052 104.56554138 175.86420105 104.56858276 174.9571228 104.57171631 C160.66217337 104.64462079 146.93113997 105.57926908 133 109 C132.09314453 109.21962402 131.18628906 109.43924805 130.25195312 109.66552734 C120.8039301 112.02086548 111.60490477 114.94811625 102.5625 118.5625 C101.8826001 118.83102783 101.2027002 119.09955566 100.50219727 119.3762207 C94.58427514 121.86833093 90.25537023 124.77273024 87.0625 130.4375 C85.23635 136.56047354 87.38496952 141.41843689 89.5625 147.25 C92 153.79603399 92 153.79603399 92 156 C86.71875397 155.47389886 82.75770314 154.25574264 77.9375 151.875 C76.18759766 151.03582031 76.18759766 151.03582031 74.40234375 150.1796875 C67.04354326 145.92528366 63.10653256 138.21409549 59 131.0625 C58.44675049 130.11173584 57.89350098 129.16097168 57.32348633 128.18139648 C56.14862601 126.16158546 54.97656885 124.14014167 53.80712891 122.1171875 C51.9924638 118.98700051 50.16097259 115.86726985 48.32421875 112.75 C47.11181531 110.68759632 45.89957148 108.62509879 44.6875 106.5625 C44.13771484 105.62994385 43.58792969 104.6973877 43.02148438 103.73657227 C41.32535958 100.83649269 39.65566825 97.92336926 38 95 C37.35337402 93.85845459 36.70674805 92.71690918 36.04052734 91.54077148 C30.90694993 82.3010278 26.9628629 72.82038142 23.25 62.9375 C22.34779394 60.57081122 21.44192529 58.20554496 20.53585815 55.84033203 C19.92419387 54.24309236 19.31361544 52.64543643 18.70413208 51.04736328 C15.67858699 43.12265339 12.5393419 35.24511592 9.375 27.375 C8.64845215 25.5650354 8.64845215 25.5650354 7.90722656 23.71850586 C7.45057617 22.5816333 6.99392578 21.44476074 6.5234375 20.2734375 C6.09643555 19.20706055 5.66943359 18.14068359 5.22949219 17.04199219 C4.42555943 15.05291313 3.60898748 13.06888386 2.77832031 11.09082031 C2.41061523 10.20749023 2.04291016 9.32416016 1.6640625 8.4140625 C1.34131348 7.65303223 1.01856445 6.89200195 0.68603516 6.10791016 C0 4 0 4 0 0 Z " fill="#000000" transform="translate(93,30)"/>
<path d="M0 0 C6.30885395 0.50811972 11.31287384 2.0695627 17.09765625 4.578125 C17.95741058 4.94128311 18.81716492 5.30444122 19.70297241 5.67860413 C22.49353087 6.85977922 25.27792513 8.05479612 28.0625 9.25 C29.9937965 10.07025714 31.92552243 10.88950387 33.85766602 11.70776367 C37.73816676 13.3524377 41.61653093 15.00199273 45.49316406 16.65576172 C52.48466963 19.63597403 59.49411596 22.57282964 66.506073 25.5045166 C70.6155244 27.22364371 74.72248877 28.94869433 78.82788086 30.67749023 C80.95307106 31.56351774 83.08424292 32.4353244 85.22094727 33.29321289 C91.18354937 35.70184123 96.67527724 38.30086 102.0625 41.8125 C102.74022461 42.24481934 103.41794922 42.67713867 104.11621094 43.12255859 C109.00637724 46.27253058 113.7284983 49.62007111 118.39453125 53.09375 C121.02800663 55.02049061 123.71214675 56.83090414 126.4375 58.625 C134.50270838 63.95324089 142.38475258 69.54185784 150.29199219 75.10058594 C153.07842054 77.05500467 155.87043081 79.00120623 158.6640625 80.9453125 C159.57865234 81.58259277 160.49324219 82.21987305 161.43554688 82.87646484 C163.19884791 84.10482107 164.96313714 85.33176023 166.72851562 86.55712891 C167.91864258 87.38736572 167.91864258 87.38736572 169.1328125 88.234375 C169.83293457 88.72131836 170.53305664 89.20826172 171.25439453 89.70996094 C173 91 173 91 175 93 C175 93.99 175 94.98 175 96 C166.47780968 95.45586832 158.28265711 94.0276666 149.9375 92.25 C148.73544922 92.01023437 147.53339844 91.77046875 146.29492188 91.5234375 C138.84553749 89.94659018 132.5923667 87.79220297 126 84 C125.09886475 83.49339844 124.19772949 82.98679687 123.26928711 82.46484375 C120.33097298 80.79310913 117.41347474 79.08963094 114.5 77.375 C113.45191162 76.76035889 112.40382324 76.14571777 111.32397461 75.51245117 C90.90123819 63.50228184 71.03041986 50.7533639 51.34838867 37.57055664 C48.68280497 35.78786613 46.01319709 34.01127486 43.34375 32.234375 C37.09005848 28.06541207 30.85131725 23.8748457 24.6262207 19.66333008 C23.41255536 18.84305633 22.1980295 18.02405441 20.98266602 17.20629883 C4.06007044 5.81813703 4.06007044 5.81813703 0 2 C0 1.34 0 0.68 0 0 Z " fill="#000000" transform="translate(1,185)"/>
<path d="M0 0 C6.79449483 5.00297764 11.33765822 12.7386651 13 21 C13.76037209 29.66824186 11.33368862 37.53550835 5.875 44.375 C0.18128484 50.36385374 -7.79751322 54.01897711 -16.0625 54.3125 C-24.0107411 54.19465129 -31.70612544 51.2508839 -37.5 45.77734375 C-44.44229674 37.55144527 -45.67558555 29.47819944 -45 19 C-43.82670749 10.967459 -39.10315464 5.14290035 -33 0 C-22.75521 -5.95698551 -10.20987268 -5.97348453 0 0 Z M-23 18 C-25.35858628 20.35858628 -25.36946499 21.07631948 -25.5 24.3125 C-25.44053025 26.94616023 -25.33415753 28.49761143 -23.8671875 30.703125 C-21.38764911 32.96197149 -19.21242298 33.96098353 -15.9375 34.5625 C-12.32218892 33.87020639 -10.61891584 32.54408967 -8 30 C-6.43064406 26.86128812 -6.64798897 24.46144178 -7 21 C-9.42853382 17.7143366 -11.12274814 16.29241729 -15 15 C-18.60577657 15 -20.14484011 15.85863008 -23 18 Z " fill="#000000" transform="translate(426,317)"/>
<path d="M0 0 C5.89249201 3.47078564 9.22165049 8.070908 11.8125 14.3125 C13.40778386 23.7246748 13.023334 30.98003683 7.4375 39 C2.98089879 44.01764601 -2.36161069 47.48286925 -9.1328125 48.31640625 C-17.53059921 48.67898478 -23.73532308 46.37331532 -30.375 41.3125 C-36.00853744 36.04579756 -37.78565836 30.15303677 -38.125 22.5625 C-37.86834782 15.23935789 -35.81255518 9.5609944 -30.84765625 4.12109375 C-22.52878864 -3.43323898 -10.21920413 -4.61261949 0 0 Z " fill="#000000" transform="translate(285.5625,319)"/>
<path d="M0 0 C-4.17145714 7.92557354 -8.75038372 15.48975513 -13.625 23 C-15.0538147 25.21717133 -16.48219669 27.43462157 -17.91015625 29.65234375 C-18.6077002 30.73370605 -19.30524414 31.81506836 -20.02392578 32.92919922 C-22.72506415 37.12674288 -25.39964707 41.34059111 -28.0625 45.5625 C-28.53091309 46.30516113 -28.99932617 47.04782227 -29.48193359 47.81298828 C-33.58382405 54.32579711 -37.66798718 60.84972026 -41.75 67.375 C-42.38905273 68.39537354 -43.02810547 69.41574707 -43.68652344 70.46704102 C-46.37420435 74.76529755 -49.05417821 79.06567398 -51.66015625 83.4140625 C-52.03366211 84.03490723 -52.40716797 84.65575195 -52.79199219 85.29541016 C-53.72851982 86.85972497 -54.65574141 88.42960133 -55.58203125 90 C-56.28392578 90.99 -56.28392578 90.99 -57 92 C-57.66 92 -58.32 92 -59 92 C-60.11315721 86.55878154 -59.72440734 82.46504824 -58.15625 77.1171875 C-57.94947632 76.38106232 -57.74270264 75.64493713 -57.52966309 74.88650513 C-57.08913625 73.33318189 -56.64161387 71.78182743 -56.1875 70.23242188 C-55.50959117 67.90788791 -54.86277995 65.57630218 -54.21875 63.2421875 C-50.37051872 49.66094466 -44.45054952 38.37870345 -36 27 C-37.52415924 27.71127431 -39.04828417 28.4226222 -40.57226562 29.13427734 C-41.91284824 29.75950982 -43.25400658 30.38350918 -44.59570312 31.00634766 C-48.10804146 32.63894667 -51.60897943 34.2894983 -55.08984375 35.98828125 C-55.745896 36.30466553 -56.40194824 36.6210498 -57.07788086 36.94702148 C-58.90900105 37.83106668 -60.73587006 38.72390136 -62.5625 39.6171875 C-66.09200123 41.03700959 -69.22669259 41.62459442 -73 42 C-73.33 40.68 -73.66 39.36 -74 38 C-62.77160059 29.39290943 -51.58388936 21.48644309 -39 15 C-38.35498535 14.66307129 -37.7099707 14.32614258 -37.04541016 13.97900391 C-32.40519937 11.56369399 -27.72034694 9.25423723 -23 7 C-22.2167334 6.62359375 -21.4334668 6.2471875 -20.62646484 5.859375 C-18.19633569 4.70102148 -15.75672151 3.5657741 -13.3125 2.4375 C-12.18062256 1.89887329 -12.18062256 1.89887329 -11.02587891 1.34936523 C-10.31222168 1.02653564 -9.59856445 0.70370605 -8.86328125 0.37109375 C-8.23719971 0.08161865 -7.61111816 -0.20785645 -6.96606445 -0.50610352 C-4.40362668 -1.14981538 -2.52820209 -0.65562175 0 0 Z " fill="#010000" transform="translate(140,384)"/>
<path d="M0 0 C-0.44031248 4.91682271 -2.94479814 7.84828685 -6 11.5 C-9.79692989 16.16752406 -13.39157779 20.88227325 -16.75 25.875 C-20.18179381 30.91813786 -23.7971224 35.57935672 -28 40 C-28.51820313 40.56460938 -29.03640625 41.12921875 -29.5703125 41.7109375 C-31 43 -31 43 -33 43 C-33 43.66 -33 44.32 -33 45 C-35.01171875 46.7265625 -35.01171875 46.7265625 -37.6875 48.625 C-38.55761719 49.25664062 -39.42773438 49.88828125 -40.32421875 50.5390625 C-43.19783648 52.10801583 -44.78438641 52.31287051 -48 52 C-44.40069379 32.3632788 -20.50923131 12.10204014 -5.12890625 1.21484375 C-3 0 -3 0 0 0 Z " fill="#000000" transform="translate(177,387)"/>
<path d="M0 0 C-0.41220371 5.37978685 -3.48623423 8.97669849 -6.5625 13.1875 C-7.38331055 14.32251953 -7.38331055 14.32251953 -8.22070312 15.48046875 C-9.31301267 16.98319849 -10.41007412 18.48248735 -11.51220703 19.97802734 C-12.74065762 21.64754289 -13.94922398 23.33166994 -15.15234375 25.01953125 C-20.30043613 31.93081806 -27.68901585 39.82320421 -36.3671875 41.74609375 C-37.23601562 41.82988281 -38.10484375 41.91367187 -39 42 C-38.43986245 37.42410709 -36.4760251 34.01923808 -34.0625 30.1875 C-33.70220703 29.59001953 -33.34191406 28.99253906 -32.97070312 28.37695312 C-32.04093616 26.87870985 -31.02648071 25.43371436 -30 24 C-29.34 24 -28.68 24 -28 24 C-27.6596875 23.195625 -27.6596875 23.195625 -27.3125 22.375 C-25.54429911 19.17539839 -23.46329797 16.70962777 -21 14 C-20.34 14 -19.68 14 -19 14 C-19 13.34 -19 12.68 -19 12 C-13.52380952 7 -13.52380952 7 -11 7 C-11 6.34 -11 5.68 -11 5 C-9.609375 3.7109375 -9.609375 3.7109375 -7.75 2.375 C-7.14671875 1.92898438 -6.5434375 1.48296875 -5.921875 1.0234375 C-4 0 -4 0 0 0 Z " fill="#000000" transform="translate(140,414)"/>
</svg>
