<?xml version="1.0" standalone="no"?>
<!DOCTYPE svg PUBLIC "-//W3C//DTD SVG 20010904//EN"
 "http://www.w3.org/TR/2001/REC-SVG-20010904/DTD/svg10.dtd">
<svg version="1.0" xmlns="http://www.w3.org/2000/svg"
 width="610.000000pt" height="600.000000pt" viewBox="0 0 610.000000 600.000000"
 preserveAspectRatio="xMidYMid meet">

<g transform="translate(0.000000,600.000000) scale(0.100000,-0.100000)"
fill="#000000" stroke="none">
<path d="M4620 4660 c-1171 -1071 -1469 -1338 -1485 -1334 -11 4 -50 19 -87
35 -121 53 -295 77 -422 60 -105 -15 -245 -63 -331 -113 -40 -24 -117 -87
-179 -146 l-108 -105 -94 7 -93 6 39 -82 c45 -94 62 -186 53 -285 -7 -76 -3
-78 102 -34 85 36 190 55 259 48 28 -3 64 -3 78 0 l27 5 -41 54 c-31 42 -42
66 -46 104 -4 46 -2 50 41 97 54 57 132 106 225 141 231 86 535 -37 654 -265
50 -95 68 -163 68 -259 0 -109 -14 -173 -58 -264 -81 -165 -255 -285 -442
-305 -206 -21 -416 91 -506 271 -16 32 -33 58 -39 57 -23 -6 -704 -767 -735
-821 -17 -31 -117 -205 -221 -385 -175 -304 -202 -357 -181 -357 4 0 59 48
122 107 134 124 628 578 877 807 l173 158 77 -36 c417 -198 915 -37 1122 363
111 215 127 440 47 674 -20 58 -31 107 -28 118 7 18 623 675 927 989 89 91
280 291 425 445 145 154 354 375 465 490 415 436 345 347 620 789 161 258 188
306 169 306 -5 0 -668 -603 -1474 -1340z"/>
<path d="M940 5681 c0 -7 72 -196 161 -420 l161 -406 162 -278 c88 -153 174
-294 190 -314 45 -54 226 -137 226 -103 0 5 -14 44 -31 87 -36 91 -35 135 6
189 67 87 398 195 692 225 133 14 384 5 477 -16 143 -32 161 -55 160 -201 -1
-87 1 -104 13 -99 8 3 16 5 17 5 10 0 129 155 140 182 26 61 246 718 246 733
0 28 -18 23 -91 -28 -74 -51 -127 -100 -226 -209 -95 -103 -155 -119 -384 -99
-280 24 -692 -40 -966 -150 -54 -21 -102 -32 -154 -36 l-76 -5 -35 43 c-20 24
-169 226 -333 449 -290 396 -355 479 -355 451z"/>
<path d="M3985 5104 c-181 -151 -334 -279 -340 -286 -7 -8 18 -9 93 -4 67 4
102 3 102 -4 0 -14 -230 -367 -297 -458 -127 -168 -218 -201 -403 -148 -170
49 -351 65 -548 47 -281 -25 -498 -98 -767 -257 -49 -29 -107 -56 -128 -60
-81 -14 -98 0 -437 357 l-315 331 -220 164 c-121 90 -329 245 -461 344 -133
99 -247 180 -253 180 -6 0 -11 -4 -11 -9 0 -12 379 -516 486 -646 45 -55 173
-190 285 -300 261 -257 860 -827 903 -860 36 -27 233 -96 253 -88 9 3 -12 32
-57 79 -62 66 -70 78 -70 113 0 50 26 82 122 148 149 103 343 185 531 224 205
44 499 26 707 -43 150 -49 170 -69 179 -183 l6 -69 106 97 c58 53 122 120 143
147 51 67 746 1420 746 1453 0 23 -55 -19 -355 -269z"/>
<path d="M5410 4305 c-63 -40 -356 -222 -650 -405 -294 -183 -550 -347 -569
-364 -18 -17 -82 -89 -142 -159 -97 -114 -125 -157 -101 -157 4 0 54 28 112
61 128 74 306 160 379 184 142 46 203 -14 284 -285 64 -212 82 -343 81 -605
-1 -249 -15 -362 -69 -550 -79 -276 -246 -602 -350 -680 -27 -21 -50 -29 -99
-32 -57 -5 -72 -2 -131 25 -78 37 -202 116 -322 207 -47 36 -90 65 -94 65 -13
0 14 -66 86 -210 l67 -135 156 -150 c86 -82 309 -297 495 -477 l339 -328 217
-138 c203 -130 272 -172 286 -172 19 0 -8 40 -101 145 -309 352 -647 769 -680
840 -27 57 -30 111 -10 158 7 18 49 87 93 154 142 216 244 448 308 698 54 210
69 338 69 600 0 210 -2 244 -28 383 -32 180 -46 230 -115 422 -29 80 -53 159
-53 177 0 51 42 99 234 268 188 164 207 186 353 388 77 107 99 149 78 146 -5
0 -60 -33 -123 -74z"/>
<path d="M45 4115 c52 -43 814 -549 945 -627 373 -221 361 -216 545 -254 173
-35 215 -40 215 -25 0 12 -666 480 -770 541 -26 15 -88 44 -139 64 -51 20
-247 102 -436 181 -189 80 -354 145 -367 145 -22 0 -22 -1 7 -25z"/>
<path d="M4043 2860 c-135 -27 -225 -139 -226 -280 -1 -115 60 -207 171 -258
46 -21 65 -24 121 -20 106 8 186 58 235 148 58 106 43 227 -40 319 -69 77
-164 110 -261 91z m123 -214 c37 -37 42 -62 20 -105 -35 -67 -100 -79 -152
-27 -45 45 -47 95 -5 137 42 42 92 40 137 -5z"/>
<path d="M2652 2815 c-123 -38 -195 -173 -158 -297 20 -69 67 -125 130 -154
213 -99 425 119 321 331 -31 63 -81 104 -149 122 -61 16 -88 16 -144 -2z"/>
<path d="M1212 2096 c-79 -35 -192 -92 -252 -126 -122 -70 -301 -200 -293
-214 8 -13 61 1 128 33 200 97 255 120 255 106 0 -7 -29 -57 -65 -109 -40 -59
-70 -117 -80 -153 -9 -32 -32 -109 -50 -170 -82 -272 -66 -266 134 53 92 148
220 351 284 452 64 101 117 186 117 188 0 14 -52 -4 -178 -60z"/>
<path d="M1654 2052 c-129 -103 -182 -162 -283 -312 -64 -94 -79 -121 -67
-126 19 -7 132 74 192 138 22 24 60 71 83 106 23 35 74 103 112 152 102 129
89 144 -37 42z"/>
<path d="M1320 1814 c-113 -83 -228 -214 -284 -321 -20 -39 -20 -43 -2 -43 21
0 158 104 189 144 25 32 151 213 170 243 18 30 -17 19 -73 -23z"/>
</g>
</svg>
